{"asset":{"generator":"Khronos glTF Spline I/O v0.0.1","version":"2.0"},"scenes":[{"nodes":[0]}],"nodes":[{"name":"","children":[1,2,3,4,5,6,7,8,9,10,11,12,13,14,15]},{"name":"Camera","camera":0,"translation":[0,6.123233995736766e-14,1000],"rotation":[-3.061616997868383e-17,0,0,1]},{"name":"Dodecahedron","matrix":[1,0,0,0,0,1,0,0,0,0,1,0,51.51257832821102,-25.302877278508845,-1942.8665988178273,1],"mesh":0},{"name":"Directional Light","translation":[532,349,300],"rotation":[-0.4711983646380471,0.254428158456951,-0.4012564714917577,0.7431229086985671],"extensions":{"KHR_lights_punctual":{"light":0}}},{"name":"Wide Screen","matrix":[1,0,0,0,0,1,0,0,0,0,1,0,0,0,0,1],"mesh":1},{"name":"Avatar","matrix":[1,0,0,0,0,1,0,0,0,0,1,0,562.5,305.5,1,1],"mesh":2},{"name":"Banner","matrix":[1,0,0,0,0,1,0,0,0,0,1,0,40.26,301.38,1,1],"mesh":3},{"name":"Featured Card 1","matrix":[1,0,0,0,0,1,0,0,0,0,1,0,-142.25,9.38,1,1],"mesh":4},{"name":"Featured Card 2","matrix":[1,0,0,0,0,1,0,0,0,0,1,0,225.75,9.38,1,1],"mesh":5},{"name":"Popular Card 1","matrix":[1,0,0,0,0,1,0,0,0,0,1,0,-142.25,-262.62,1,1],"mesh":6},{"name":"Popular Card 2","matrix":[1,0,0,0,0,1,0,0,0,0,1,0,225.75,-262.62,1,1],"mesh":7},{"name":"Wilsão","matrix":[1,0,0,0,0,1,0,0,0,0,1,0,569,37.77,1,1],"mesh":8},{"name":"Mozão","matrix":[1,0,0,0,0,1,0,0,0,0,1,0,569,-29.23,1,1],"mesh":9},{"name":"Lalá","matrix":[1,0,0,0,0,1,0,0,0,0,1,0,569,-96.23254343893868,1,1],"mesh":10},{"name":"Xenilda","matrix":[1,0,0,0,0,1,0,0,0,0,1,0,569,-166.23254343893868,1,1],"mesh":11},{"name":"Personal Camera","camera":1,"translation":[803.8342887976327,154.45181299703938,392.8709286688779],"rotation":[-0.10912145642964699,0.4420891156053292,0.05428603868520335,0.8886522084673166]}],"cameras":[{"type":"orthographic","orthographic":{"xmag":1538,"ymag":797,"zfar":99441,"znear":-99977}},{"type":"orthographic","orthographic":{"xmag":1538,"ymag":797,"zfar":100000,"znear":-100000}}],"meshes":[{"primitives":[{"attributes":{"POSITION":0,"NORMAL":1,"TEXCOORD_0":2}}]},{"primitives":[{"attributes":{"POSITION":4,"NORMAL":5,"TEXCOORD_0":6},"indices":3}]},{"primitives":[{"attributes":{"POSITION":8,"NORMAL":9,"TEXCOORD_0":10},"indices":7}]},{"primitives":[{"attributes":{"POSITION":12,"NORMAL":13,"TEXCOORD_0":14},"indices":11}]},{"primitives":[{"attributes":{"POSITION":16,"NORMAL":17,"TEXCOORD_0":18},"indices":15}]},{"primitives":[{"attributes":{"POSITION":20,"NORMAL":21,"TEXCOORD_0":22},"indices":19}]},{"primitives":[{"attributes":{"POSITION":24,"NORMAL":25,"TEXCOORD_0":26},"indices":23}]},{"primitives":[{"attributes":{"POSITION":28,"NORMAL":29,"TEXCOORD_0":30},"indices":27}]},{"primitives":[{"attributes":{"POSITION":32,"NORMAL":33,"TEXCOORD_0":34},"indices":31}]},{"primitives":[{"attributes":{"POSITION":36,"NORMAL":37,"TEXCOORD_0":38},"indices":35}]},{"primitives":[{"attributes":{"POSITION":40,"NORMAL":41,"TEXCOORD_0":42},"indices":39}]},{"primitives":[{"attributes":{"POSITION":44,"NORMAL":45,"TEXCOORD_0":46},"indices":43}]}],"buffers":[{"uri":"data:application/octet-stream;base64,","byteLength":3456},{"uri":"data:application/octet-stream;base64,","byteLength":152},{"uri":"data:application/octet-stream;base64,","byteLength":106224},{"uri":"data:application/octet-stream;base64,","byteLength":70800},{"uri":"data:application/octet-stream;base64,","byteLength":22416},{"uri":"data:application/octet-stream;base64,","byteLength":22416},{"uri":"data:application/octet-stream;base64,","byteLength":22416},{"uri":"data:application/octet-stream;base64,","byteLength":22416},{"uri":"data:application/octet-stream;base64,","byteLength":70800},{"uri":"data:application/octet-stream;base64,","byteLength":70800},{"uri":"data:application/octet-stream;base64,","byteLength":70800},{"uri":"data:application/octet-stream;base64,","byteLength":70800}],"bufferViews":[{"buffer":0,"byteOffset":0,"byteLength":1296,"target":34962},{"buffer":0,"byteOffset":1296,"byteLength":1296,"target":34962},{"buffer":0,"byteOffset":2592,"byteLength":864,"target":34962},{"buffer":1,"byteOffset":0,"byteLength":24,"target":34963},{"buffer":1,"byteOffset":24,"byteLength":48,"target":34962},{"buffer":1,"byteOffset":72,"byteLength":48,"target":34962},{"buffer":1,"byteOffset":120,"byteLength":32,"target":34962},{"buffer":2,"byteOffset":0,"byteLength":11760,"target":34963},{"buffer":2,"byteOffset":11760,"byteLength":31488,"target":34962},{"buffer":2,"byteOffset":43248,"byteLength":31488,"target":34962},{"buffer":2,"byteOffset":74736,"byteLength":31488,"target":34962},{"buffer":3,"byteOffset":0,"byteLength":7824,"target":34963},{"buffer":3,"byteOffset":7824,"byteLength":20992,"target":34962},{"buffer":3,"byteOffset":28816,"byteLength":20992,"target":34962},{"buffer":3,"byteOffset":49808,"byteLength":20992,"target":34962},{"buffer":4,"byteOffset":0,"byteLength":2448,"target":34963},{"buffer":4,"byteOffset":2448,"byteLength":6656,"target":34962},{"buffer":4,"byteOffset":9104,"byteLength":6656,"target":34962},{"buffer":4,"byteOffset":15760,"byteLength":6656,"target":34962},{"buffer":5,"byteOffset":0,"byteLength":2448,"target":34963},{"buffer":5,"byteOffset":2448,"byteLength":6656,"target":34962},{"buffer":5,"byteOffset":9104,"byteLength":6656,"target":34962},{"buffer":5,"byteOffset":15760,"byteLength":6656,"target":34962},{"buffer":6,"byteOffset":0,"byteLength":2448,"target":34963},{"buffer":6,"byteOffset":2448,"byteLength":6656,"target":34962},{"buffer":6,"byteOffset":9104,"byteLength":6656,"target":34962},{"buffer":6,"byteOffset":15760,"byteLength":6656,"target":34962},{"buffer":7,"byteOffset":0,"byteLength":2448,"target":34963},{"buffer":7,"byteOffset":2448,"byteLength":6656,"target":34962},{"buffer":7,"byteOffset":9104,"byteLength":6656,"target":34962},{"buffer":7,"byteOffset":15760,"byteLength":6656,"target":34962},{"buffer":8,"byteOffset":0,"byteLength":7824,"target":34963},{"buffer":8,"byteOffset":7824,"byteLength":20992,"target":34962},{"buffer":8,"byteOffset":28816,"byteLength":20992,"target":34962},{"buffer":8,"byteOffset":49808,"byteLength":20992,"target":34962},{"buffer":9,"byteOffset":0,"byteLength":7824,"target":34963},{"buffer":9,"byteOffset":7824,"byteLength":20992,"target":34962},{"buffer":9,"byteOffset":28816,"byteLength":20992,"target":34962},{"buffer":9,"byteOffset":49808,"byteLength":20992,"target":34962},{"buffer":10,"byteOffset":0,"byteLength":7824,"target":34963},{"buffer":10,"byteOffset":7824,"byteLength":20992,"target":34962},{"buffer":10,"byteOffset":28816,"byteLength":20992,"target":34962},{"buffer":10,"byteOffset":49808,"byteLength":20992,"target":34962},{"buffer":11,"byteOffset":0,"byteLength":7824,"target":34963},{"buffer":11,"byteOffset":7824,"byteLength":20992,"target":34962},{"buffer":11,"byteOffset":28816,"byteLength":20992,"target":34962},{"buffer":11,"byteOffset":49808,"byteLength":20992,"target":34962}],"accessors":[{"bufferView":0,"byteOffset":0,"componentType":5126,"count":108,"type":"VEC3","min":[-635.5155029296875,-635.5155029296875,-635.5155029296875],"max":[635.5155029296875,635.5155029296875,635.5155029296875]},{"bufferView":1,"byteOffset":0,"componentType":5126,"count":108,"type":"VEC3","min":[-0.8506508469581604,-0.8506508469581604,-0.8506507873535156],"max":[0.8506508469581604,0.8506508469581604,0.8506507873535156]},{"bufferView":2,"byteOffset":0,"componentType":5126,"count":108,"type":"VEC2","min":[0,0.11613976210355759],"max":[1.125,0.8838602304458618]},{"bufferView":3,"byteOffset":0,"componentType":5125,"count":6,"type":"SCALAR","min":[0],"max":[3]},{"bufferView":4,"byteOffset":0,"componentType":5126,"count":4,"type":"VEC3","min":[-720,-512,0],"max":[720,512,0]},{"bufferView":5,"byteOffset":0,"componentType":5126,"count":4,"type":"VEC3","min":[0,0,1],"max":[0,0,1]},{"bufferView":6,"byteOffset":0,"componentType":5126,"count":4,"type":"VEC2","min":[0,0],"max":[1,1]},{"bufferView":7,"byteOffset":0,"componentType":5125,"count":2940,"type":"SCALAR","min":[0],"max":[983]},{"bufferView":8,"byteOffset":0,"componentType":5126,"count":984,"type":"VEC3","min":[-100.45894622802734,-108.09819793701172,0],"max":[100.45894622802734,108.09819793701172,21]},{"bufferView":9,"byteOffset":0,"componentType":5126,"count":984,"type":"VEC3","min":[-1,-0.999886155128479,-1],"max":[1,0.999886155128479,1]},{"bufferView":10,"byteOffset":0,"componentType":5126,"count":984,"type":"VEC2","min":[0,0],"max":[1,1]},{"bufferView":11,"byteOffset":0,"componentType":5125,"count":1956,"type":"SCALAR","min":[0],"max":[655]},{"bufferView":12,"byteOffset":0,"componentType":5126,"count":656,"type":"VEC3","min":[-360.260009765625,-86.62124633789062,0],"max":[360.260009765625,86.62124633789062,21]},{"bufferView":13,"byteOffset":0,"componentType":5126,"count":656,"type":"VEC3","min":[-1,-1,-1],"max":[1,1,1]},{"bufferView":14,"byteOffset":0,"componentType":5126,"count":656,"type":"VEC2","min":[0,0],"max":[1,1]},{"bufferView":15,"byteOffset":0,"componentType":5125,"count":612,"type":"SCALAR","min":[0],"max":[207]},{"bufferView":16,"byteOffset":0,"componentType":5126,"count":208,"type":"VEC3","min":[-179,-102,0],"max":[179,102,21]},{"bufferView":17,"byteOffset":0,"componentType":5126,"count":208,"type":"VEC3","min":[-1,-1,-1],"max":[1,1,1]},{"bufferView":18,"byteOffset":0,"componentType":5126,"count":208,"type":"VEC2","min":[0,0],"max":[1,1]},{"bufferView":19,"byteOffset":0,"componentType":5125,"count":612,"type":"SCALAR","min":[0],"max":[207]},{"bufferView":20,"byteOffset":0,"componentType":5126,"count":208,"type":"VEC3","min":[-179,-102,0],"max":[179,102,21]},{"bufferView":21,"byteOffset":0,"componentType":5126,"count":208,"type":"VEC3","min":[-1,-1,-1],"max":[1,1,1]},{"bufferView":22,"byteOffset":0,"componentType":5126,"count":208,"type":"VEC2","min":[0,0],"max":[1,1]},{"bufferView":23,"byteOffset":0,"componentType":5125,"count":612,"type":"SCALAR","min":[0],"max":[207]},{"bufferView":24,"byteOffset":0,"componentType":5126,"count":208,"type":"VEC3","min":[-179,-102,0],"max":[179,102,21]},{"bufferView":25,"byteOffset":0,"componentType":5126,"count":208,"type":"VEC3","min":[-1,-1,-1],"max":[1,1,1]},{"bufferView":26,"byteOffset":0,"componentType":5126,"count":208,"type":"VEC2","min":[0,0],"max":[1,1]},{"bufferView":27,"byteOffset":0,"componentType":5125,"count":612,"type":"SCALAR","min":[0],"max":[207]},{"bufferView":28,"byteOffset":0,"componentType":5126,"count":208,"type":"VEC3","min":[-179,-102,0],"max":[179,102,21]},{"bufferView":29,"byteOffset":0,"componentType":5126,"count":208,"type":"VEC3","min":[-1,-1,-1],"max":[1,1,1]},{"bufferView":30,"byteOffset":0,"componentType":5126,"count":208,"type":"VEC2","min":[0,0],"max":[1,1]},{"bufferView":31,"byteOffset":0,"componentType":5125,"count":1956,"type":"SCALAR","min":[0],"max":[655]},{"bufferView":32,"byteOffset":0,"componentType":5126,"count":656,"type":"VEC3","min":[-136.5,-29.5,0],"max":[136.5,29.5,10]},{"bufferView":33,"byteOffset":0,"componentType":5126,"count":656,"type":"VEC3","min":[-1,-1,-1],"max":[1,1,1]},{"bufferView":34,"byteOffset":0,"componentType":5126,"count":656,"type":"VEC2","min":[0,0],"max":[1,1]},{"bufferView":35,"byteOffset":0,"componentType":5125,"count":1956,"type":"SCALAR","min":[0],"max":[655]},{"bufferView":36,"byteOffset":0,"componentType":5126,"count":656,"type":"VEC3","min":[-136.5,-29.5,0],"max":[136.5,29.5,10]},{"bufferView":37,"byteOffset":0,"componentType":5126,"count":656,"type":"VEC3","min":[-1,-1,-1],"max":[1,1,1]},{"bufferView":38,"byteOffset":0,"componentType":5126,"count":656,"type":"VEC2","min":[0,0],"max":[1,1]},{"bufferView":39,"byteOffset":0,"componentType":5125,"count":1956,"type":"SCALAR","min":[0],"max":[655]},{"bufferView":40,"byteOffset":0,"componentType":5126,"count":656,"type":"VEC3","min":[-136.5,-29.5,0],"max":[136.5,29.5,10]},{"bufferView":41,"byteOffset":0,"componentType":5126,"count":656,"type":"VEC3","min":[-1,-1,-1],"max":[1,1,1]},{"bufferView":42,"byteOffset":0,"componentType":5126,"count":656,"type":"VEC2","min":[0,0],"max":[1,1]},{"bufferView":43,"byteOffset":0,"componentType":5125,"count":1956,"type":"SCALAR","min":[0],"max":[655]},{"bufferView":44,"byteOffset":0,"componentType":5126,"count":656,"type":"VEC3","min":[-136.5,-29.5,0],"max":[136.5,29.5,10]},{"bufferView":45,"byteOffset":0,"componentType":5126,"count":656,"type":"VEC3","min":[-1,-1,-1],"max":[1,1,1]},{"bufferView":46,"byteOffset":0,"componentType":5126,"count":656,"type":"VEC2","min":[0,0],"max":[1,1]}],"extensions":{"KHR_lights_punctual":{"lights":[{"type":"directional","name":"Directional Light","color":[1,1,1],"intensity":0.7}]}},"extensionsUsed":["KHR_lights_punctual"]}